<svg xmlns="http://www.w3.org/2000/svg" viewBox="0 0 461.1 80.93"><defs><style>.cls-1{fill:#98ceff;}.cls-2{fill:#fff;}.cls-3{fill:#4b4c4c;stroke:#4b4c4c;stroke-linecap:round;stroke-linejoin:round;}</style></defs><title>Asset 7</title><g id="Layer_2" data-name="Layer 2"><g id="Layer_1-2" data-name="Layer 1"><g id="Layer_1-2-2" data-name="Layer 1-2"><path class="cls-1" d="M189.11,54.5c-2.34-.84-4.26-2.9-6.66-3.78a9.93,9.93,0,0,0-8.32.41,49.32,49.32,0,0,1-5.2,3.2,9,9,0,0,1-5.32.28,18.13,18.13,0,0,1-5.28-2.13c0,.17,0,.33,0,.49a23.43,23.43,0,0,0,2.24,10.16,17,17,0,0,0,6.4,6.95,18.6,18.6,0,0,0,10.11,2.58,17.94,17.94,0,0,0,9.64-2.58,18.67,18.67,0,0,0,6.7-7.24,21.2,21.2,0,0,0,2.35-8.59A9.63,9.63,0,0,1,189.11,54.5Z"/><path class="cls-2" d="M177.38,24.26h0Z"/><path class="cls-2" d="M177.49,28.1h0Z"/><path class="cls-3" d="M.5,80.35V.5H3.24V51H28.18l16.4-26.46H48L31.23,51.37a21.38,21.38,0,0,1,14.1,7.92,25.27,25.27,0,0,1,5.09,16v5H47.76v-5a23.19,23.19,0,0,0-2.64-11.22,19.66,19.66,0,0,0-7.49-7.7,22.38,22.38,0,0,0-11.54-2.84H3.24v26.8Z"/><path class="cls-3" d="M79.09,80.35V.5h2.74V51h24.94l16.41-26.46h3.39l-16.72,26.8A21.4,21.4,0,0,1,124,59.29a25.19,25.19,0,0,1,5.09,16v5h-2.74v-5a23.41,23.41,0,0,0-2.61-11.22,19.73,19.73,0,0,0-7.49-7.7,22.58,22.58,0,0,0-11.56-2.84H81.83v26.8Z"/><path class="cls-3" d="M250.34,34.67a23.7,23.7,0,0,0-8.7-9.21,24.67,24.67,0,0,0-13-3.37,23,23,0,0,0-13.83,4.15A26.77,26.77,0,0,0,206,37.07a32.94,32.94,0,0,0-1.79,5,25.87,25.87,0,0,0-12.12-16.53,26.89,26.89,0,0,0-14.32-3.73,29.19,29.19,0,0,0-15.25,3.83,25.7,25.7,0,0,0-9.84,10.39,31.4,31.4,0,0,0-3.46,14.88,33.84,33.84,0,0,0,3.24,15,24.67,24.67,0,0,0,9.46,10.54A27.88,27.88,0,0,0,177,80.35a26.33,26.33,0,0,0,11.76-2.42,28.42,28.42,0,0,0,8.48-6.23,27.57,27.57,0,0,0,4.85-7.27h.31V79h2.89V63.15a21,21,0,0,0,2,3.61,26,26,0,0,0,11.32,9.3,38.51,38.51,0,0,0,15.8,3.2h12.12V76.84H233.37a33.46,33.46,0,0,1-13.54-2.91,24.15,24.15,0,0,1-10.18-8.14,22.18,22.18,0,0,1-3.83-13.18h47.23a18.3,18.3,0,0,0,.29-2.43V47.76A27.68,27.68,0,0,0,250.34,34.67ZM199.08,64.72a25.28,25.28,0,0,1-9.11,9.7,24.63,24.63,0,0,1-13,3.49,25,25,0,0,1-13.57-3.49,23.22,23.22,0,0,1-8.48-9.7,30.46,30.46,0,0,1-3-13.13A31.36,31.36,0,0,1,155,37.53a23.59,23.59,0,0,1,8.75-9.69,25.37,25.37,0,0,1,13.67-3.57,24.68,24.68,0,0,1,13.31,3.4,23.78,23.78,0,0,1,8.65,9.42,29.52,29.52,0,0,1,3,13.63A27.59,27.59,0,0,1,199.08,64.72Zm51.36-14.78H205.82a27.71,27.71,0,0,1,1.53-9,27.24,27.24,0,0,1,4.48-8.19,23,23,0,0,1,7.1-6,19.36,19.36,0,0,1,9.4-2.25,23.8,23.8,0,0,1,10.09,1.91A19.17,19.17,0,0,1,245,31.33a21.9,21.9,0,0,1,3.78,6.47,28.26,28.26,0,0,1,1.6,6.66,29.74,29.74,0,0,1,.1,5.5Z"/><path class="cls-3" d="M273.7,80.35V.5h2.74V51h24.94l16.41-26.46h3.39l-16.75,26.8a21.41,21.41,0,0,1,14.18,7.92,25.19,25.19,0,0,1,5.09,16v5H321v-5a23.07,23.07,0,0,0-2.64-11.22,19.59,19.59,0,0,0-7.49-7.7,22.38,22.38,0,0,0-11.54-2.84H276.44v26.8Z"/><path class="cls-3" d="M352.3,80.35V.5H355V51H380l16.41-26.46h3.39L383,51.37a21.41,21.41,0,0,1,14.17,7.92,25.13,25.13,0,0,1,5.09,16v5h-2.74v-5a23.3,23.3,0,0,0-2.61-11.22,19.88,19.88,0,0,0-7.47-7.7,22.56,22.56,0,0,0-11.56-2.84H355.06v26.8Z"/><path class="cls-3" d="M423.86,27.09V24.66H460.6v2.43ZM449.55,80.4a15.65,15.65,0,0,1-11.63-4.26,15.85,15.85,0,0,1-4.22-11.61v-54h2.74V63.39a15.13,15.13,0,0,0,3.44,10.71,13.48,13.48,0,0,0,10.45,3.73h9.84v2.43Z"/></g></g></g></svg>