<svg xmlns="http://www.w3.org/2000/svg" viewBox="0 0 190.85 33.95"><defs><style>.cls-1{fill:#7bb1ff;}.cls-2{fill:#fff;}.cls-3{fill:#4b4c4c;stroke:#4b4c4c;stroke-linecap:round;stroke-linejoin:round;}</style></defs><title>Asset 1</title><g id="Layer_2" data-name="Layer 2"><g id="Layer_1-2" data-name="Layer 1"><path class="cls-1" d="M63.38,20.14a1,1,0,0,0,.36.61,8.46,8.46,0,0,0,3.39,1.63,4.14,4.14,0,0,0,2.46-.13A23.27,23.27,0,0,0,72,20.77a4.59,4.59,0,0,1,3.85-.19c1.11.41,2,1.36,3.08,1.75,1.9.67,3.87-.26,5.47-1.48,0,0-.83,8.8-7.8,11.24,0,0-9.34,1.9-12-5.17a21.21,21.21,0,0,1-1.11-3.35A6.26,6.26,0,0,1,63.38,20.14Z"/><path class="cls-2" d="M73.56,12.32a8.11,8.11,0,0,1,4.38,1.13,7.71,7.71,0,0,1,2.85,3.11,10.16,10.16,0,0,1,1,4.69A9.58,9.58,0,0,1,80.72,26a8.36,8.36,0,0,1-3,3.24,8.06,8.06,0,0,1-4.32,1.16,8.33,8.33,0,0,1-4.53-1.16A7.6,7.6,0,0,1,66,26.13a10.5,10.5,0,0,1-1-4.55,11,11,0,0,1,1-4.87A7.77,7.77,0,0,1,69,13.49a8.58,8.58,0,0,1,4.58-1.17m0-1.5a9.94,9.94,0,0,0-5.37,1.4,9.25,9.25,0,0,0-3.44,3.83,12.19,12.19,0,0,0-1.21,5.53,11.83,11.83,0,0,0,1.14,5.2A8.94,8.94,0,0,0,68,30.54a10.51,10.51,0,0,0,10.43,0A10.06,10.06,0,0,0,82,26.76a11,11,0,0,0,1.29-5.53,11.46,11.46,0,0,0-1.21-5.35,9.11,9.11,0,0,0-3.39-3.7,9.61,9.61,0,0,0-5.17-1.36Z"/><path class="cls-3" d="M.5,33.45V.5H1.63V21.35H11.92l6.77-10.92h1.4L13.18,21.49A8.83,8.83,0,0,1,19,24.76a10.45,10.45,0,0,1,2.1,6.61v2.08H20V31.37a9.51,9.51,0,0,0-1.09-4.63,8.07,8.07,0,0,0-3.09-3.18,9.28,9.28,0,0,0-4.76-1.17H1.63V33.45Z"/><path class="cls-3" d="M32.93,33.45V.5h1.13V21.35H44.35l6.77-10.92h1.4l-6.9,11.06a8.84,8.84,0,0,1,5.84,3.27,10.39,10.39,0,0,1,2.1,6.61v2.08H52.43V31.37a9.62,9.62,0,0,0-1.08-4.63,8.14,8.14,0,0,0-3.09-3.18,9.32,9.32,0,0,0-4.77-1.17H34.06V33.45Z"/><path class="cls-3" d="M103.59,14.6A9.74,9.74,0,0,0,100,10.8a10.16,10.16,0,0,0-5.37-1.39,9.49,9.49,0,0,0-5.71,1.71,11.07,11.07,0,0,0-3.63,4.47,13.78,13.78,0,0,0-.74,2.07,11.06,11.06,0,0,0-1-2.67,10.92,10.92,0,0,0-4-4.15A11.13,11.13,0,0,0,73.64,9.3a12.06,12.06,0,0,0-6.29,1.58,10.61,10.61,0,0,0-4.06,4.29,13,13,0,0,0-1.43,6.14,14,14,0,0,0,1.34,6.18,10.2,10.2,0,0,0,3.9,4.35,11.53,11.53,0,0,0,6.23,1.61,10.85,10.85,0,0,0,4.85-1,11.77,11.77,0,0,0,3.5-2.57,11.36,11.36,0,0,0,2-3h.13v6H85V26.35a8.54,8.54,0,0,0,.81,1.49,10.75,10.75,0,0,0,4.67,3.84A16,16,0,0,0,97,33h5v-1H96.59A13.83,13.83,0,0,1,91,30.8a10,10,0,0,1-4.2-3.36A9.16,9.16,0,0,1,85.22,22h19.49a8.28,8.28,0,0,0,.12-1c0-.31,0-.64,0-1A11.42,11.42,0,0,0,103.59,14.6ZM82.44,27a10.43,10.43,0,0,1-3.76,4,10.11,10.11,0,0,1-5.35,1.44A10.28,10.28,0,0,1,67.73,31,9.56,9.56,0,0,1,64.23,27,12.54,12.54,0,0,1,63,21.58a12.91,12.91,0,0,1,1.26-5.8,9.76,9.76,0,0,1,3.61-4,10.44,10.44,0,0,1,5.64-1.47A10.18,10.18,0,0,1,79,11.71a9.79,9.79,0,0,1,3.57,3.89,12.14,12.14,0,0,1,1.26,5.62A11.4,11.4,0,0,1,82.44,27Zm21.19-6.1H85.22a11.46,11.46,0,0,1,.63-3.7,11.26,11.26,0,0,1,1.85-3.38,9.51,9.51,0,0,1,2.93-2.46,8,8,0,0,1,3.88-.93,9.83,9.83,0,0,1,4.16.79,7.94,7.94,0,0,1,2.7,2,9.07,9.07,0,0,1,1.56,2.67,11.55,11.55,0,0,1,.66,2.75A12.21,12.21,0,0,1,103.63,20.91Z"/><path class="cls-3" d="M113.23,33.45V.5h1.13V21.35h10.29l6.77-10.92h1.4l-6.91,11.06a8.83,8.83,0,0,1,5.85,3.27,10.39,10.39,0,0,1,2.1,6.61v2.08h-1.13V31.37a9.51,9.51,0,0,0-1.09-4.63,8.07,8.07,0,0,0-3.09-3.18,9.28,9.28,0,0,0-4.76-1.17h-9.43V33.45Z"/><path class="cls-3" d="M145.66,33.45V.5h1.13V21.35h10.29l6.77-10.92h1.4l-6.91,11.06a8.83,8.83,0,0,1,5.85,3.27,10.39,10.39,0,0,1,2.1,6.61v2.08h-1.13V31.37a9.62,9.62,0,0,0-1.08-4.63A8.21,8.21,0,0,0,161,23.56a9.32,9.32,0,0,0-4.77-1.17h-9.43V33.45Z"/><path class="cls-3" d="M175.19,11.47v-1h15.16v1Zm10.6,22a6.46,6.46,0,0,1-4.8-1.76,6.53,6.53,0,0,1-1.74-4.79V4.65h1.13v21.8a6.25,6.25,0,0,0,1.42,4.42,5.57,5.57,0,0,0,4.31,1.54h4.06v1Z"/></g></g></svg>